<?xml version="1.0" encoding="UTF-8" standalone="no"?>
<svg
   xmlns:dc="http://purl.org/dc/elements/1.1/"
   xmlns:cc="http://creativecommons.org/ns#"
   xmlns:rdf="http://www.w3.org/1999/02/22-rdf-syntax-ns#"
   xmlns:svg="http://www.w3.org/2000/svg"
   xmlns="http://www.w3.org/2000/svg"
   xmlns:sodipodi="http://sodipodi.sourceforge.net/DTD/sodipodi-0.dtd"
   xmlns:inkscape="http://www.inkscape.org/namespaces/inkscape"
   inkscape:version="1.0beta2 (2b71d25, 2019-12-03)"
   sodipodi:docname="1.svg"
   version="1.1"
   width="512"
   viewBox="0 0 512 512"
   height="512"
   enable-background="new 0 0 512 512"
   id="Layer_1">
  <metadata
     id="metadata39">
    <rdf:RDF>
      <cc:Work
         rdf:about="">
        <dc:format>image/svg+xml</dc:format>
        <dc:type
           rdf:resource="http://purl.org/dc/dcmitype/StillImage" />
      </cc:Work>
    </rdf:RDF>
  </metadata>
  <defs
     id="defs37" />
  <sodipodi:namedview
     inkscape:current-layer="Layer_1"
     inkscape:window-maximized="0"
     inkscape:window-y="23"
     inkscape:window-x="0"
     inkscape:cy="256"
     inkscape:cx="256"
     inkscape:zoom="0.53125"
     showgrid="false"
     id="namedview35"
     inkscape:window-height="480"
     inkscape:window-width="646"
     inkscape:pageshadow="2"
     inkscape:pageopacity="0"
     guidetolerance="10"
     gridtolerance="10"
     objecttolerance="10"
     borderopacity="1"
     inkscape:document-rotation="0"
     bordercolor="#666666"
     pagecolor="#ffffff" />
  <path
     style="fill:#b3b3b3"
     id="path32"
     d="m375 220c-11.046 0-20-8.954-20-20 0-5.514-4.486-10-10-10s-10 4.486-10 10c0 11.046-8.954 20-20 20s-20-8.954-20-20c0-27.57 22.43-50 50-50s50 22.43 50 50c0 11.046-8.954 20-20 20zm-157-20c0-27.57-22.43-50-50-50s-50 22.43-50 50c0 11.046 8.954 20 20 20s20-8.954 20-20c0-5.514 4.486-10 10-10s10 4.486 10 10c0 11.046 8.954 20 20 20s20-8.954 20-20zm170.461 275.107c9.448-5.723 12.467-18.021 6.745-27.468-5.723-9.448-18.022-12.468-27.468-6.745-33.595 20.35-72.233 31.106-111.738 31.106-119.103 0-216-96.897-216-216s96.897-216 216-216 216 96.897 216 216c0 42.589-12.665 84.044-36.626 119.885-6.139 9.183-3.672 21.603 5.511 27.742 9.183 6.14 21.604 3.671 27.742-5.511 28.374-42.442 43.373-91.585 43.373-142.116 0-68.38-26.629-132.667-74.98-181.02-48.353-48.351-112.64-74.98-181.02-74.98s-132.667 26.629-181.02 74.98c-48.351 48.353-74.98 112.64-74.98 181.02s26.629 132.667 74.98 181.02c48.353 48.351 112.64 74.98 181.02 74.98 46.813 0 92.617-12.757 132.461-36.893zm-46.461-184.107c-6.512 0-12.28 3.127-15.932 7.945 0 0-26.018 28.055-70.068 28.055s-70.068-28.055-70.068-28.055c-3.652-4.818-9.42-7.945-15.932-7.945-11.046 0-20 8.954-20 20 0 5.691 2.388 10.814 6.204 14.456 3.617 4.012 39.099 41.544 99.796 41.544s96.179-37.532 99.796-41.544c3.816-3.642 6.204-8.765 6.204-14.456 0-11.046-8.954-20-20-20z" />
</svg>
